<svg width="65" height="64" viewBox="0 0 65 64" fill="none" xmlns="http://www.w3.org/2000/svg">
<g clip-path="url(#clip0_0_1)">
<rect width="65" height="64" fill="black"/>
<path d="M18.3613 21.6699H20.9863C20.8496 22.9277 20.4896 24.0534 19.9062 25.0469C19.3229 26.0404 18.498 26.8288 17.4316 27.4121C16.3652 27.9863 15.0345 28.2734 13.4395 28.2734C12.2728 28.2734 11.2109 28.0547 10.2539 27.6172C9.30599 27.1797 8.49023 26.5599 7.80664 25.7578C7.12305 24.9466 6.5944 23.9759 6.2207 22.8457C5.85612 21.7064 5.67383 20.4395 5.67383 19.0449V17.0625C5.67383 15.668 5.85612 14.4056 6.2207 13.2754C6.5944 12.1361 7.1276 11.1608 7.82031 10.3496C8.52214 9.53841 9.36523 8.91406 10.3496 8.47656C11.334 8.03906 12.4414 7.82031 13.6719 7.82031C15.1758 7.82031 16.4473 8.10286 17.4863 8.66797C18.5254 9.23307 19.332 10.0169 19.9062 11.0195C20.4896 12.013 20.8496 13.166 20.9863 14.4785H18.3613C18.2337 13.5488 17.9967 12.7513 17.6504 12.0859C17.304 11.4115 16.8118 10.8919 16.1738 10.5273C15.5358 10.1628 14.7018 9.98047 13.6719 9.98047C12.7878 9.98047 12.0085 10.1491 11.334 10.4863C10.6686 10.8236 10.1081 11.3021 9.65234 11.9219C9.20573 12.5417 8.86849 13.2845 8.64062 14.1504C8.41276 15.0163 8.29883 15.9779 8.29883 17.0352V19.0449C8.29883 20.0202 8.39909 20.9362 8.59961 21.793C8.80924 22.6497 9.1237 23.4017 9.54297 24.0488C9.96224 24.696 10.4954 25.2064 11.1426 25.5801C11.7897 25.9447 12.5553 26.127 13.4395 26.127C14.5605 26.127 15.4538 25.9492 16.1191 25.5938C16.7845 25.2383 17.2858 24.7279 17.623 24.0625C17.9694 23.3971 18.2155 22.5996 18.3613 21.6699ZM32.9219 25.4707V17.8555C32.9219 17.2721 32.8034 16.7663 32.5664 16.3379C32.3385 15.9004 31.9922 15.5632 31.5273 15.3262C31.0625 15.0892 30.4883 14.9707 29.8047 14.9707C29.1667 14.9707 28.6061 15.0801 28.123 15.2988C27.6491 15.5176 27.2754 15.8047 27.002 16.1602C26.7376 16.5156 26.6055 16.8984 26.6055 17.3086H24.0762C24.0762 16.7799 24.2129 16.2559 24.4863 15.7363C24.7598 15.2168 25.1517 14.7474 25.6621 14.3281C26.1816 13.8997 26.8014 13.5625 27.5215 13.3164C28.2507 13.0612 29.0618 12.9336 29.9551 12.9336C31.0306 12.9336 31.9785 13.1159 32.7988 13.4805C33.6283 13.8451 34.2754 14.3965 34.7402 15.1348C35.2142 15.8639 35.4512 16.7799 35.4512 17.8828V24.7734C35.4512 25.2656 35.4922 25.7897 35.5742 26.3457C35.6654 26.9017 35.7975 27.3802 35.9707 27.7812V28H33.332C33.2044 27.7083 33.1042 27.321 33.0312 26.8379C32.9583 26.3457 32.9219 25.89 32.9219 25.4707ZM33.3594 19.0312L33.3867 20.8086H30.8301C30.11 20.8086 29.4674 20.8678 28.9023 20.9863C28.3372 21.0957 27.8633 21.2643 27.4805 21.4922C27.0977 21.7201 26.806 22.0072 26.6055 22.3535C26.4049 22.6908 26.3047 23.0872 26.3047 23.543C26.3047 24.0078 26.4095 24.4316 26.6191 24.8145C26.8288 25.1973 27.1432 25.5026 27.5625 25.7305C27.9909 25.9492 28.515 26.0586 29.1348 26.0586C29.9095 26.0586 30.5931 25.8945 31.1855 25.5664C31.778 25.2383 32.2474 24.8372 32.5938 24.3633C32.9492 23.8893 33.1406 23.429 33.168 22.9824L34.248 24.1992C34.1842 24.582 34.0111 25.0059 33.7285 25.4707C33.446 25.9355 33.0677 26.3822 32.5938 26.8105C32.1289 27.2298 31.5729 27.5807 30.9258 27.8633C30.2878 28.1367 29.5677 28.2734 28.7656 28.2734C27.763 28.2734 26.8835 28.0775 26.127 27.6855C25.3796 27.2936 24.7962 26.7695 24.377 26.1133C23.9668 25.4479 23.7617 24.7051 23.7617 23.8848C23.7617 23.0918 23.9167 22.3945 24.2266 21.793C24.5365 21.1823 24.9831 20.6764 25.5664 20.2754C26.1497 19.8652 26.8516 19.5553 27.6719 19.3457C28.4922 19.1361 29.4082 19.0312 30.4199 19.0312H33.3594ZM42.1777 7V28H39.6348V7H42.1777ZM52.1582 26.1953C52.7598 26.1953 53.3158 26.0723 53.8262 25.8262C54.3366 25.5801 54.7559 25.2428 55.084 24.8145C55.4121 24.377 55.599 23.8802 55.6445 23.3242H58.0508C58.0052 24.1992 57.709 25.015 57.1621 25.7715C56.6243 26.5189 55.918 27.125 55.043 27.5898C54.168 28.0456 53.2064 28.2734 52.1582 28.2734C51.0462 28.2734 50.0755 28.0775 49.2461 27.6855C48.4258 27.2936 47.7422 26.7559 47.1953 26.0723C46.6576 25.3887 46.252 24.6048 45.9785 23.7207C45.7142 22.8275 45.582 21.8841 45.582 20.8906V20.3164C45.582 19.3229 45.7142 18.3841 45.9785 17.5C46.252 16.6068 46.6576 15.8184 47.1953 15.1348C47.7422 14.4512 48.4258 13.9134 49.2461 13.5215C50.0755 13.1296 51.0462 12.9336 52.1582 12.9336C53.3158 12.9336 54.3275 13.1706 55.1934 13.6445C56.0592 14.1094 56.7383 14.7474 57.2305 15.5586C57.7318 16.3607 58.0052 17.2721 58.0508 18.293H55.6445C55.599 17.6823 55.4258 17.1309 55.125 16.6387C54.8333 16.1465 54.4323 15.7546 53.9219 15.4629C53.4206 15.1621 52.8327 15.0117 52.1582 15.0117C51.3835 15.0117 50.7318 15.1667 50.2031 15.4766C49.6836 15.7773 49.2689 16.1875 48.959 16.707C48.6582 17.2174 48.4395 17.7871 48.3027 18.416C48.1751 19.0358 48.1113 19.6693 48.1113 20.3164V20.8906C48.1113 21.5378 48.1751 22.1758 48.3027 22.8047C48.4303 23.4336 48.6445 24.0033 48.9453 24.5137C49.2552 25.0241 49.6699 25.4342 50.1895 25.7441C50.7181 26.0449 51.3743 26.1953 52.1582 26.1953Z" fill="white"/>
<path fill-rule="evenodd" clip-rule="evenodd" d="M59 46C59 52.6274 53.6274 58 47 58C40.7093 58 35.5492 53.1595 35.0411 47H6V45H35.0411C35.5492 38.8405 40.7093 34 47 34C53.6274 34 59 39.3726 59 46ZM37.0494 45C37.5511 39.9467 41.8147 36 47 36C52.1853 36 56.4489 39.9467 56.9506 45H37.0494ZM37.0494 47H56.9506C56.4489 52.0533 52.1853 56 47 56C41.8147 56 37.5511 52.0533 37.0494 47Z" fill="white"/>
</g>
<path d="M40.1767 39.2784L46.6998 45.3278C47.1001 45.6991 47.1001 46.3009 46.6998 46.6722L40.1767 52.7216C39.7764 53.0928 39.1274 53.0928 38.7272 52.7216C38.3269 52.3504 38.3269 51.7485 38.7272 51.3773L43.5004 46.9506H6V45.0494H43.5004L38.7272 40.6227C38.3269 40.2515 38.3269 39.6496 38.7272 39.2784C39.1274 38.9072 39.7764 38.9072 40.1767 39.2784Z" fill="white"/>
<defs>
<clipPath id="clip0_0_1">
<rect width="65" height="64" fill="white"/>
</clipPath>
</defs>
</svg>
