<svg width="65" height="64" viewBox="0 0 65 64" fill="none" xmlns="http://www.w3.org/2000/svg">
<rect width="65" height="64" fill="black"/>
<path d="M17.6582 24.3965H21.7461C21.6641 25.7363 21.2949 26.9258 20.6387 27.9648C19.9915 29.0039 19.0846 29.8151 17.918 30.3984C16.7604 30.9818 15.3659 31.2734 13.7344 31.2734C12.4583 31.2734 11.3145 31.0547 10.3027 30.6172C9.29102 30.1706 8.42513 29.5326 7.70508 28.7031C6.99414 27.8737 6.45182 26.8711 6.07812 25.6953C5.70443 24.5195 5.51758 23.2025 5.51758 21.7441V20.3633C5.51758 18.9049 5.70898 17.5879 6.0918 16.4121C6.48372 15.2272 7.03971 14.2201 7.75977 13.3906C8.48893 12.5612 9.35938 11.9232 10.3711 11.4766C11.3828 11.0299 12.513 10.8066 13.7617 10.8066C15.4206 10.8066 16.8197 11.1074 17.959 11.709C19.1074 12.3105 19.9961 13.14 20.625 14.1973C21.263 15.2546 21.6458 16.4577 21.7734 17.8066H17.6719C17.6263 17.0046 17.4668 16.3255 17.1934 15.7695C16.9199 15.2044 16.5052 14.7806 15.9492 14.498C15.4023 14.2064 14.6732 14.0605 13.7617 14.0605C13.0781 14.0605 12.4811 14.1882 11.9707 14.4434C11.4603 14.6986 11.0319 15.0859 10.6855 15.6055C10.3392 16.125 10.0794 16.7812 9.90625 17.5742C9.74219 18.3581 9.66016 19.2786 9.66016 20.3359V21.7441C9.66016 22.7741 9.73763 23.681 9.89258 24.4648C10.0475 25.2396 10.2845 25.8958 10.6035 26.4336C10.9316 26.9622 11.3509 27.3633 11.8613 27.6367C12.3809 27.901 13.0052 28.0332 13.7344 28.0332C14.5911 28.0332 15.2975 27.8965 15.8535 27.623C16.4095 27.3496 16.8333 26.944 17.125 26.4062C17.4258 25.8685 17.6035 25.1986 17.6582 24.3965ZM32.1777 27.6641V21.0742C32.1777 20.6003 32.1003 20.1947 31.9453 19.8574C31.7904 19.5111 31.5488 19.2422 31.2207 19.0508C30.9017 18.8594 30.487 18.7637 29.9766 18.7637C29.5391 18.7637 29.1608 18.8411 28.8418 18.9961C28.5228 19.1419 28.2767 19.3561 28.1035 19.6387C27.9303 19.9121 27.8438 20.2357 27.8438 20.6094H23.9062C23.9062 19.9805 24.0521 19.3835 24.3438 18.8184C24.6354 18.2533 25.0592 17.7565 25.6152 17.3281C26.1712 16.8906 26.832 16.5488 27.5977 16.3027C28.3724 16.0566 29.2383 15.9336 30.1953 15.9336C31.3438 15.9336 32.3646 16.125 33.2578 16.5078C34.151 16.8906 34.8529 17.4648 35.3633 18.2305C35.8828 18.9961 36.1426 19.9531 36.1426 21.1016V27.4316C36.1426 28.2428 36.1927 28.9082 36.293 29.4277C36.3932 29.9382 36.5391 30.3848 36.7305 30.7676V31H32.752C32.5605 30.599 32.4147 30.0977 32.3145 29.4961C32.2233 28.8854 32.1777 28.2747 32.1777 27.6641ZM32.6973 21.9902L32.7246 24.2188H30.5234C30.0039 24.2188 29.5527 24.278 29.1699 24.3965C28.7871 24.515 28.4727 24.6836 28.2266 24.9023C27.9805 25.112 27.7982 25.3581 27.6797 25.6406C27.5703 25.9232 27.5156 26.2331 27.5156 26.5703C27.5156 26.9076 27.5931 27.2129 27.748 27.4863C27.903 27.7507 28.1263 27.9603 28.418 28.1152C28.7096 28.2611 29.0514 28.334 29.4434 28.334C30.0358 28.334 30.5508 28.2155 30.9883 27.9785C31.4258 27.7415 31.763 27.4499 32 27.1035C32.2461 26.7572 32.3737 26.429 32.3828 26.1191L33.4219 27.7871C33.276 28.1608 33.0755 28.5482 32.8203 28.9492C32.5742 29.3503 32.2598 29.7285 31.877 30.084C31.4941 30.4303 31.0339 30.7174 30.4961 30.9453C29.9583 31.1641 29.3203 31.2734 28.582 31.2734C27.6432 31.2734 26.791 31.0866 26.0254 30.7129C25.2689 30.3301 24.6673 29.806 24.2207 29.1406C23.7832 28.4661 23.5645 27.7005 23.5645 26.8438C23.5645 26.069 23.7103 25.3809 24.002 24.7793C24.2936 24.1777 24.722 23.6719 25.2871 23.2617C25.8613 22.8424 26.5768 22.528 27.4336 22.3184C28.2904 22.0996 29.2839 21.9902 30.4141 21.9902H32.6973ZM43.334 10V31H39.3828V10H43.334ZM52.6992 28.1973C53.1823 28.1973 53.6107 28.1061 53.9844 27.9238C54.3581 27.7324 54.6497 27.4681 54.8594 27.1309C55.0781 26.7845 55.1921 26.3789 55.2012 25.9141H58.9062C58.8971 26.9531 58.6191 27.8783 58.0723 28.6895C57.5254 29.4915 56.7917 30.125 55.8711 30.5898C54.9505 31.0456 53.9206 31.2734 52.7812 31.2734C51.6328 31.2734 50.6302 31.082 49.7734 30.6992C48.9258 30.3164 48.2194 29.7878 47.6543 29.1133C47.0892 28.4297 46.6654 27.6367 46.3828 26.7344C46.1003 25.8229 45.959 24.8477 45.959 23.8086V23.4121C45.959 22.3639 46.1003 21.3887 46.3828 20.4863C46.6654 19.5749 47.0892 18.7819 47.6543 18.1074C48.2194 17.4238 48.9258 16.8906 49.7734 16.5078C50.6211 16.125 51.6146 15.9336 52.7539 15.9336C53.9661 15.9336 55.028 16.166 55.9395 16.6309C56.86 17.0957 57.5801 17.7611 58.0996 18.627C58.6283 19.4837 58.8971 20.5 58.9062 21.6758H55.2012C55.1921 21.1836 55.0872 20.737 54.8867 20.3359C54.6953 19.9349 54.4128 19.6159 54.0391 19.3789C53.6745 19.1328 53.2233 19.0098 52.6855 19.0098C52.1113 19.0098 51.6419 19.1328 51.2773 19.3789C50.9128 19.6159 50.6302 19.944 50.4297 20.3633C50.2292 20.7734 50.0879 21.2428 50.0059 21.7715C49.9329 22.291 49.8965 22.8379 49.8965 23.4121V23.8086C49.8965 24.3828 49.9329 24.9342 50.0059 25.4629C50.0788 25.9915 50.2155 26.4609 50.416 26.8711C50.6257 27.2812 50.9128 27.6048 51.2773 27.8418C51.6419 28.0788 52.1159 28.1973 52.6992 28.1973Z" fill="white"/>
<path d="M39.0088 37.2585L44.7364 42.8759C45.0879 43.2206 45.0879 43.7794 44.7364 44.1241L39.0088 49.7415C38.6574 50.0862 38.0875 50.0862 37.736 49.7415C37.3846 49.3968 37.3846 48.8379 37.736 48.4932L41.9272 44.3827H9V42.6173H41.9272L37.736 38.5068C37.3846 38.1621 37.3846 37.6032 37.736 37.2585C38.0875 36.9138 38.6574 36.9138 39.0088 37.2585Z" fill="white"/>
<path fill-rule="evenodd" clip-rule="evenodd" d="M56 43.5C56 49.299 51.2356 54 45.3585 54C39.78 54 35.204 49.7646 34.7534 44.375H9V42.625H34.7534C35.204 37.2354 39.78 33 45.3585 33C51.2356 33 56 37.701 56 43.5ZM36.5344 42.625C36.9793 38.2033 40.7602 34.75 45.3585 34.75C49.9568 34.75 53.7377 38.2033 54.1826 42.625H36.5344ZM36.5344 44.375H54.1826C53.7377 48.7967 49.9568 52.25 45.3585 52.25C40.7602 52.25 36.9793 48.7967 36.5344 44.375Z" fill="white"/>
</svg>
